HIERARCHY
ROOT mixamorig:Hips
{
	OFFSET 0.000000 77.627144 7.190781
	CHANNELS 6 Xposition Yposition Zposition Xrotation Yrotation Zrotation
	JOINT mixamorig:Spine
	{
		OFFSET 0.000000 14.685707 -1.734714
		CHANNELS 3 Xrotation Yrotation Zrotation
		JOINT mixamorig:Spine1
		{
			OFFSET 0.000000 17.133331 -2.023833
			CHANNELS 3 Xrotation Yrotation Zrotation
			JOINT mixamorig:Spine2
			{
				OFFSET 0.000000 19.580948 -2.312953
				CHANNELS 3 Xrotation Yrotation Zrotation
				JOINT mixamorig:Neck
				{
					OFFSET 0.000000 22.028564 -2.602070
					CHANNELS 3 Xrotation Yrotation Zrotation
					JOINT mixamorig:Head
					{
						OFFSET 0.000000 7.772293 1.167654
						CHANNELS 3 Xrotation Yrotation Zrotation
						JOINT mixamorig:HeadTop_End
						{
							OFFSET 0.000000 26.518158 3.983897
							CHANNELS 3 Xrotation Yrotation Zrotation
							End Site
							{
								OFFSET 0.000000 26.815750 0.000000
							}
						}
					}
				}
				JOINT mixamorig:LeftShoulder
				{
					OFFSET 11.646637 18.513367 -2.583829
					CHANNELS 3 Xrotation Yrotation Zrotation
					JOINT mixamorig:LeftArm
					{
						OFFSET 23.494797 -6.787735 0.036483
						CHANNELS 3 Xrotation Yrotation Zrotation
						JOINT mixamorig:LeftForeArm
						{
							OFFSET 22.628841 -2.236465 0.895561
							CHANNELS 3 Xrotation Yrotation Zrotation
							JOINT mixamorig:LeftHand
							{
								OFFSET 32.235813 0.214081 0.341628
								CHANNELS 3 Xrotation Yrotation Zrotation
								JOINT mixamorig:LeftHandThumb1
								{
									OFFSET 4.043732 -2.301453 4.675424
									CHANNELS 3 Xrotation Yrotation Zrotation
									JOINT mixamorig:LeftHandThumb2
									{
										OFFSET 3.235001 -1.841141 3.740334
										CHANNELS 3 Xrotation Yrotation Zrotation
										JOINT mixamorig:LeftHandThumb3
										{
											OFFSET 4.136284 -1.355438 2.884997
											CHANNELS 3 Xrotation Yrotation Zrotation
											JOINT mixamorig:LeftHandThumb4
											{
												OFFSET 3.443222 -1.440781 1.895251
												CHANNELS 3 Xrotation Yrotation Zrotation
												End Site
												{
													OFFSET 3.082619 -1.455811 2.429330
												}
											}
										}
									}
								}
								JOINT mixamorig:LeftHandIndex1
								{
									OFFSET 12.534279 0.552322 5.370454
									CHANNELS 3 Xrotation Yrotation Zrotation
									JOINT mixamorig:LeftHandIndex2
									{
										OFFSET 4.462021 -0.042068 -0.222766
										CHANNELS 3 Xrotation Yrotation Zrotation
										JOINT mixamorig:LeftHandIndex3
										{
											OFFSET 4.426414 -0.140015 -0.221126
											CHANNELS 3 Xrotation Yrotation Zrotation
											JOINT mixamorig:LeftHandIndex4
											{
												OFFSET 3.584976 -0.033737 -0.180877
												CHANNELS 3 Xrotation Yrotation Zrotation
												End Site
												{
													OFFSET 3.584984 -0.033707 -0.180676
												}
											}
										}
									}
								}
								JOINT mixamorig:LeftHandMiddle1
								{
									OFFSET 12.067444 0.830978 1.411757
									CHANNELS 3 Xrotation Yrotation Zrotation
									JOINT mixamorig:LeftHandMiddle2
									{
										OFFSET 5.488625 0.110443 -0.140360
										CHANNELS 3 Xrotation Yrotation Zrotation
										JOINT mixamorig:LeftHandMiddle3
										{
											OFFSET 5.193268 -0.285706 -0.132956
											CHANNELS 3 Xrotation Yrotation Zrotation
											JOINT mixamorig:LeftHandMiddle4
											{
												OFFSET 4.443779 -0.316895 -0.113542
												CHANNELS 3 Xrotation Yrotation Zrotation
												End Site
												{
													OFFSET 4.443962 -0.316620 -0.107084
												}
											}
										}
									}
								}
								JOINT mixamorig:LeftHandRing1
								{
									OFFSET 12.202324 0.602158 -2.428782
									CHANNELS 3 Xrotation Yrotation Zrotation
									JOINT mixamorig:LeftHandRing2
									{
										OFFSET 4.681709 0.293594 -0.070412
										CHANNELS 3 Xrotation Yrotation Zrotation
										JOINT mixamorig:LeftHandRing3
										{
											OFFSET 4.517784 0.001785 -0.067170
											CHANNELS 3 Xrotation Yrotation Zrotation
											JOINT mixamorig:LeftHandRing4
											{
												OFFSET 3.536186 -0.473984 -0.050865
												CHANNELS 3 Xrotation Yrotation Zrotation
												End Site
												{
													OFFSET 3.536438 -0.473450 -0.036327
												}
											}
										}
									}
								}
								JOINT mixamorig:LeftHandPinky1
								{
									OFFSET 11.261032 -0.021225 -5.740205
									CHANNELS 3 Xrotation Yrotation Zrotation
									JOINT mixamorig:LeftHandPinky2
									{
										OFFSET 4.446136 0.226913 -0.056313
										CHANNELS 3 Xrotation Yrotation Zrotation
										JOINT mixamorig:LeftHandPinky3
										{
											OFFSET 3.536148 0.035980 -0.044635
											CHANNELS 3 Xrotation Yrotation Zrotation
											JOINT mixamorig:LeftHandPinky4
											{
												OFFSET 2.822449 0.069366 -0.035670
												CHANNELS 3 Xrotation Yrotation Zrotation
												End Site
												{
													OFFSET 2.822449 0.069397 -0.035034
												}
											}
										}
									}
								}
							}
						}
					}
				}
				JOINT mixamorig:RightShoulder
				{
					OFFSET -11.646637 18.513367 -2.620312
					CHANNELS 3 Xrotation Yrotation Zrotation
					JOINT mixamorig:RightArm
					{
						OFFSET -23.494804 -6.787735 -0.036485
						CHANNELS 3 Xrotation Yrotation Zrotation
						JOINT mixamorig:RightForeArm
						{
							OFFSET -22.628826 -2.236481 0.960591
							CHANNELS 3 Xrotation Yrotation Zrotation
							JOINT mixamorig:RightHand
							{
								OFFSET -32.235806 0.214096 0.317908
								CHANNELS 3 Xrotation Yrotation Zrotation
								JOINT mixamorig:RightHandThumb1
								{
									OFFSET -4.056908 -2.304855 4.721249
									CHANNELS 3 Xrotation Yrotation Zrotation
									JOINT mixamorig:RightHandThumb2
									{
										OFFSET -3.245529 -1.843887 3.777003
										CHANNELS 3 Xrotation Yrotation Zrotation
										JOINT mixamorig:RightHandThumb3
										{
											OFFSET -4.153908 -1.359879 2.907515
											CHANNELS 3 Xrotation Yrotation Zrotation
											JOINT mixamorig:RightHandThumb4
											{
												OFFSET -3.491310 -1.375549 1.529044
												CHANNELS 3 Xrotation Yrotation Zrotation
												End Site
												{
													OFFSET -3.035126 -1.400162 2.290608
												}
											}
										}
									}
								}
								JOINT mixamorig:RightHandIndex1
								{
									OFFSET -12.331047 0.757294 5.317495
									CHANNELS 3 Xrotation Yrotation Zrotation
									JOINT mixamorig:RightHandIndex2
									{
										OFFSET -4.758568 -0.224289 -0.035605
										CHANNELS 3 Xrotation Yrotation Zrotation
										JOINT mixamorig:RightHandIndex3
										{
											OFFSET -4.415932 -0.181503 -0.033052
											CHANNELS 3 Xrotation Yrotation Zrotation
											JOINT mixamorig:RightHandIndex4
											{
												OFFSET -3.678474 0.414856 -0.027373
												CHANNELS 3 Xrotation Yrotation Zrotation
												End Site
												{
													OFFSET -3.678375 0.414001 -0.046045
												}
											}
										}
									}
								}
								JOINT mixamorig:RightHandMiddle1
								{
									OFFSET -12.051239 0.663742 1.548264
									CHANNELS 3 Xrotation Yrotation Zrotation
									JOINT mixamorig:RightHandMiddle2
									{
										OFFSET -5.374817 0.301971 -0.166537
										CHANNELS 3 Xrotation Yrotation Zrotation
										JOINT mixamorig:RightHandMiddle3
										{
											OFFSET -5.310471 -0.301758 -0.164593
											CHANNELS 3 Xrotation Yrotation Zrotation
											JOINT mixamorig:RightHandMiddle4
											{
												OFFSET -4.485832 -0.342514 -0.139207
												CHANNELS 3 Xrotation Yrotation Zrotation
												End Site
												{
													OFFSET -4.486198 -0.342010 -0.127963
												}
											}
										}
									}
								}
								JOINT mixamorig:RightHandRing1
								{
									OFFSET -12.195183 0.742325 -2.381488
									CHANNELS 3 Xrotation Yrotation Zrotation
									JOINT mixamorig:RightHandRing2
									{
										OFFSET -4.583191 0.034424 -0.012763
										CHANNELS 3 Xrotation Yrotation Zrotation
										JOINT mixamorig:RightHandRing3
										{
											OFFSET -4.612793 0.026199 -0.012632
											CHANNELS 3 Xrotation Yrotation Zrotation
											JOINT mixamorig:RightHandRing4
											{
												OFFSET -3.314957 -0.541855 -0.006643
												CHANNELS 3 Xrotation Yrotation Zrotation
												End Site
												{
													OFFSET -3.315063 -0.541092 0.010116
												}
											}
										}
									}
								}
								JOINT mixamorig:RightHandPinky1
								{
									OFFSET -11.332825 -0.054398 -5.574547
									CHANNELS 3 Xrotation Yrotation Zrotation
									JOINT mixamorig:RightHandPinky2
									{
										OFFSET -4.462639 0.300003 -0.206312
										CHANNELS 3 Xrotation Yrotation Zrotation
										JOINT mixamorig:RightHandPinky3
										{
											OFFSET -3.493774 0.049591 -0.161451
											CHANNELS 3 Xrotation Yrotation Zrotation
											JOINT mixamorig:RightHandPinky4
											{
												OFFSET -2.793701 0.056946 -0.129098
												CHANNELS 3 Xrotation Yrotation Zrotation
												End Site
												{
													OFFSET -2.793793 0.057053 -0.126857
												}
											}
										}
									}
								}
							}
						}
					}
				}
			}
		}
	}
	JOINT mixamorig:LeftUpLeg
	{
		OFFSET 13.580879 -8.149223 -1.796077
		CHANNELS 3 Xrotation Yrotation Zrotation
		JOINT mixamorig:LeftLeg
		{
			OFFSET 3.676140 -35.802425 -2.676071
			CHANNELS 3 Xrotation Yrotation Zrotation
			JOINT mixamorig:LeftFoot
			{
				OFFSET -0.369089 -26.709160 -2.057140
				CHANNELS 3 Xrotation Yrotation Zrotation
				JOINT mixamorig:LeftToeBase
				{
					OFFSET -1.192477 -6.581660 13.403662
					CHANNELS 3 Xrotation Yrotation Zrotation
					JOINT mixamorig:LeftToe_End
					{
						OFFSET -0.351336 -0.163913 5.937977
						CHANNELS 3 Xrotation Yrotation Zrotation
						End Site
						{
							OFFSET -0.351338 -0.163913 5.937977
						}
					}
				}
			}
		}
	}
	JOINT mixamorig:RightUpLeg
	{
		OFFSET -13.580879 -8.149223 -2.255285
		CHANNELS 3 Xrotation Yrotation Zrotation
		JOINT mixamorig:RightLeg
		{
			OFFSET -3.676140 -35.802425 -2.316821
			CHANNELS 3 Xrotation Yrotation Zrotation
			JOINT mixamorig:RightFoot
			{
				OFFSET 0.369059 -26.709040 -2.090143
				CHANNELS 3 Xrotation Yrotation Zrotation
				JOINT mixamorig:RightToeBase
				{
					OFFSET 1.192393 -6.582436 13.372205
					CHANNELS 3 Xrotation Yrotation Zrotation
					JOINT mixamorig:RightToe_End
					{
						OFFSET 0.351307 -0.164255 5.913618
						CHANNELS 3 Xrotation Yrotation Zrotation
						End Site
						{
							OFFSET 0.351309 -0.164255 5.913618
						}
					}
				}
			}
		}
	}
}
MOTION
Frames: 4
Frame Time: 0.016667
2.644610 77.855316 11.617527 0.250016 -3.014416 -8.170633 3.578296 -4.999972 1.941297 2.543574 -0.748496 0.564623 2.532545 -0.736119 0.539146 1.281428 -4.702080 9.075182 -6.383948 -12.901323 2.070124 -0.000000 -0.000000 -0.000000 3.496971 -24.194613 3.046768 -0.849512 -53.878831 -0.658563 -150.322451 -78.854712 -150.287289 15.790728 -11.257874 -12.465626 1.663575 3.135979 10.518417 24.248456 25.424305 -43.737775 -27.708740 40.546066 30.295809 -0.000004 0.000000 -0.000001 4.188200 -6.008350 -74.307889 0.065174 5.657189 -81.289496 0.868815 6.376002 -97.290061 0.000004 0.000000 0.000001 0.018398 -1.875365 -71.407572 2.680814 4.935702 -103.223679 1.003750 3.920107 -71.260798 -0.000001 -0.000000 0.000002 -1.732079 -2.163264 -79.537594 2.243672 4.132089 -90.585042 0.878641 3.002671 -52.220430 0.000002 -0.000000 0.000002 0.109545 6.785493 -83.554558 0.618190 2.901869 -52.473905 1.895953 3.734584 -81.983806 -0.000000 -0.000002 0.000000 -22.774257 7.440290 -10.487927 -21.773089 13.645398 -8.593560 176.687295 148.391583 -173.043457 -38.214338 10.203238 -24.925696 1.182455 -0.400199 -9.693856 7.958576 -23.584445 14.962757 -20.282945 -20.755031 -28.634796 -0.000000 -0.000003 0.000004 4.527825 8.388716 44.993233 1.073719 -1.926447 83.055913 1.459749 -2.085793 104.922088 -0.000001 -0.000000 -0.000001 -1.485336 4.709224 73.778761 -0.302118 -3.300207 101.000248 -0.839199 -1.250339 42.697169 -0.000002 -0.000001 0.000000 -2.410052 3.599629 89.510578 1.167489 -1.584842 86.152174 0.294135 -1.004907 31.841813 -0.000001 0.000001 0.000005 -3.046818 -4.344773 98.251445 -1.641176 -1.745655 48.501054 -1.720594 -1.933049 53.688921 0.000000 0.000001 -0.000001 -18.095198 9.470953 24.650450 32.254462 8.121628 -0.711369 -7.606204 0.966298 -2.423390 -3.612306 0.018414 -0.876429 -0.000001 -0.000001 -0.000001 -34.542606 -9.381277 -19.903571 67.557428 -7.774778 0.466455 10.186677 -17.870611 18.893756 3.854634 -0.000026 -0.000012 0.000001 0.000001 0.000001 
0.585678 77.898041 11.874033 0.818439 -2.009606 -6.915044 2.604457 -5.168815 -0.035042 1.954505 -0.782985 0.382569 1.941922 -0.775417 0.364029 1.662104 -5.002477 10.592757 -4.294812 -12.579147 1.555273 0.000000 0.000000 -0.000000 3.201255 -24.692840 1.836053 4.255551 -52.813574 4.022671 -150.457388 -78.809489 -150.419603 12.340119 -10.556403 -13.570213 1.663576 3.135980 10.518418 24.248445 25.424305 -43.737765 -27.708739 40.546052 30.295813 -0.000000 0.000000 0.000000 4.188197 -6.008341 -74.307896 0.065184 5.657187 -81.289483 0.868805 6.375979 -97.290055 -0.000002 0.000000 0.000000 0.018403 -1.875368 -71.407558 2.680802 4.935699 -103.223659 1.003749 3.920109 -71.260825 0.000000 -0.000000 0.000001 -1.732077 -2.163269 -79.537567 2.243660 4.132094 -90.585015 0.878639 3.002681 -52.220423 0.000001 0.000000 0.000001 0.109546 6.785483 -83.554565 0.618177 2.901872 -52.473902 1.895952 3.734585 -81.983792 -0.000002 -0.000001 0.000001 -22.942003 4.418891 -11.205634 -5.701641 22.870463 -12.461952 178.910153 167.550100 -173.861086 -39.440770 12.262264 -13.546687 1.182457 -0.400193 -9.693850 7.958543 -23.584440 14.962733 -20.282947 -20.755029 -28.634807 -0.000003 0.000003 0.000000 4.527829 8.388722 44.993239 1.073719 -1.926461 83.055899 1.459755 -2.085816 104.922088 -0.000001 -0.000001 0.000000 -1.485331 4.709207 73.778781 -0.302119 -3.300193 101.000227 -0.839190 -1.250350 42.697169 -0.000001 -0.000001 -0.000001 -2.410040 3.599627 89.510592 1.167509 -1.584822 86.152174 0.294141 -1.004916 31.841809 -0.000003 -0.000003 -0.000000 -3.046803 -4.344761 98.251431 -1.641220 -1.745652 48.501057 -1.720565 -1.933070 53.688921 -0.000000 -0.000002 -0.000002 -19.585666 10.689296 22.408478 36.339953 6.109506 -0.785815 -9.222006 0.825116 -5.228005 -2.373600 0.000014 -0.000008 0.000000 -0.000000 -0.000002 -28.519255 -7.649814 -18.013446 53.346960 -7.461940 0.208018 15.274519 -14.012812 20.115086 2.290516 0.000007 -0.000018 -0.000002 0.000001 0.000000 
-1.417163 77.620010 12.136895 1.347499 -0.938780 -5.641184 1.726707 -5.302795 -1.873634 1.449339 -0.811712 0.262005 1.435960 -0.807518 0.249380 1.776706 -5.217353 11.661961 -2.422182 -12.236112 1.090500 0.000000 -0.000002 -0.000000 2.861727 -25.028253 0.508762 8.266851 -51.370587 7.576770 -152.145551 -78.205980 -152.072973 9.148873 -9.866427 -14.771990 1.663585 3.135958 10.518414 24.248454 25.424310 -43.737782 -27.708749 40.546066 30.295830 -0.000003 -0.000003 -0.000001 4.188203 -6.008358 -74.307896 0.065190 5.657192 -81.289476 0.868817 6.375978 -97.290048 -0.000002 -0.000000 0.000000 0.018403 -1.875367 -71.407586 2.680808 4.935700 -103.223672 1.003759 3.920108 -71.260818 0.000002 0.000000 0.000001 -1.732080 -2.163260 -79.537573 2.243666 4.132093 -90.585036 0.878635 3.002682 -52.220426 -0.000003 -0.000000 -0.000002 0.109545 6.785471 -83.554544 0.618179 2.901870 -52.473908 1.895954 3.734583 -81.983799 0.000000 0.000001 -0.000003 -23.155543 1.487893 -12.263877 9.791191 27.814231 -17.086341 179.973941 178.139612 -173.978824 -33.604275 12.785197 -5.752622 1.182465 -0.400188 -9.693858 7.958555 -23.584447 14.962731 -20.282942 -20.755015 -28.634812 -0.000004 -0.000003 0.000000 4.527823 8.388726 44.993236 1.073716 -1.926470 83.055865 1.459754 -2.085804 104.922088 -0.000001 -0.000000 0.000001 -1.485341 4.709216 73.778781 -0.302095 -3.300172 101.000234 -0.839213 -1.250334 42.697176 0.000000 -0.000002 0.000001 -2.410039 3.599629 89.510599 1.167511 -1.584816 86.152195 0.294131 -1.004893 31.841802 0.000000 -0.000004 0.000001 -3.046795 -4.344768 98.251424 -1.641189 -1.745634 48.501030 -1.720587 -1.933063 53.688927 -0.000001 0.000002 0.000003 -20.273060 11.901927 19.614703 39.581708 4.137506 -0.866830 -11.177750 1.363830 -7.806929 -2.403269 0.000000 -0.000002 0.000000 -0.000001 -0.000001 -22.348215 -5.879714 -16.675576 38.913531 -6.360372 0.149743 18.757240 -10.907273 19.362364 -0.957598 -0.000009 -0.000008 0.000002 -0.000003 0.000002 
-3.211188 77.184540 12.365378 1.752772 0.206476 -4.591248 1.030325 -5.424636 -3.267000 1.095657 -0.835678 0.225549 1.082337 -0.833448 0.216780 1.640961 -5.303268 12.170507 -0.964759 -11.795344 0.707366 0.000000 0.000002 -0.000000 2.531018 -25.100686 -0.786152 10.897989 -49.836229 9.532724 -154.518208 -77.221210 -154.389815 6.791056 -9.303507 -15.914891 1.663572 3.135968 10.518420 24.248449 25.424321 -43.737779 -27.708749 40.546066 30.295833 -0.000005 0.000000 -0.000003 4.188196 -6.008357 -74.307896 0.065166 5.657191 -81.289483 0.868816 6.376005 -97.290034 -0.000002 0.000000 0.000000 0.018389 -1.875360 -71.407579 2.680803 4.935699 -103.223631 1.003735 3.920119 -71.260791 0.000000 -0.000001 0.000001 -1.732079 -2.163261 -79.537573 2.243676 4.132089 -90.585036 0.878635 3.002675 -52.220396 -0.000001 0.000001 -0.000000 0.109542 6.785481 -83.554565 0.618191 2.901870 -52.473902 1.895952 3.734567 -81.983806 -0.000002 -0.000001 -0.000001 -23.440902 -1.151301 -13.574458 22.243437 27.712917 -21.089601 179.973955 178.139639 -173.978811 -21.653706 12.442170 -1.748340 1.182468 -0.400190 -9.693854 7.958552 -23.584449 14.962750 -20.282954 -20.755019 -28.634810 -0.000005 -0.000001 0.000002 4.527816 8.388721 44.993239 1.073726 -1.926468 83.055906 1.459768 -2.085813 104.922081 0.000000 0.000000 0.000003 -1.485331 4.709202 73.778775 -0.302110 -3.300178 101.000234 -0.839192 -1.250356 42.697165 -0.000000 -0.000004 -0.000001 -2.410038 3.599636 89.510592 1.167488 -1.584829 86.152195 0.294151 -1.004923 31.841819 -0.000001 0.000004 0.000001 -3.046803 -4.344784 98.251452 -1.641195 -1.745642 48.501054 -1.720597 -1.933058 53.688907 0.000001 0.000002 0.000001 -19.964011 12.914192 16.316038 41.321354 3.283230 -0.832469 -13.260849 2.713811 -9.107217 -2.592118 -0.000007 -0.000003 -0.000000 -0.000000 -0.000000 -15.603960 -4.954532 -15.358005 23.569451 -5.061231 -0.534291 21.184264 -8.887738 17.428136 -12.388144 -0.619140 5.050149 0.000001 -0.000001 0.000001 
